<?xml version="1.0" standalone="no"?>
<!DOCTYPE svg PUBLIC "-//W3C//DTD SVG 20010904//EN"
 "http://www.w3.org/TR/2001/REC-SVG-20010904/DTD/svg10.dtd">
<svg version="1.0" xmlns="http://www.w3.org/2000/svg"
 width="1080.000000pt" height="1080.000000pt" viewBox="0 0 1080.000000 1080.000000"
 preserveAspectRatio="xMidYMid meet">
<metadata>
Created by potrace 1.14, written by Peter Selinger 2001-2017
</metadata>
<g transform="translate(0.000000,1080.000000) scale(0.100000,-0.100000)"
fill="#000000" stroke="none">
<path d="M5128 10796 c-1 -2 -50 -6 -108 -10 -597 -38 -1232 -194 -1785 -438
-135 -59 -371 -178 -505 -254 -204 -116 -519 -327 -666 -447 -10 -9 -50 -41
-89 -72 -128 -104 -198 -168 -375 -345 -202 -201 -243 -246 -409 -445 -9 -11
-62 -81 -118 -155 -290 -388 -543 -844 -710 -1280 -70 -184 -185 -547 -208
-654 -2 -12 -17 -82 -33 -156 -44 -199 -71 -367 -88 -535 -3 -33 -7 -71 -10
-85 -26 -162 -25 -822 1 -1037 2 -16 6 -57 9 -93 4 -36 8 -76 10 -90 3 -14 9
-59 15 -100 167 -1132 695 -2183 1506 -2996 233 -234 322 -313 545 -485 527
-406 1113 -706 1755 -897 176 -53 423 -112 530 -127 22 -4 47 -8 55 -10 8 -3
32 -7 54 -11 21 -3 46 -7 55 -9 9 -1 41 -6 71 -10 30 -4 63 -9 72 -10 9 -2 48
-7 85 -10 37 -4 82 -9 98 -11 102 -13 275 -19 520 -19 313 0 397 5 705 41 82
9 282 45 424 75 172 37 161 34 216 49 25 7 50 13 55 14 88 20 426 132 581 194
360 144 654 296 974 507 139 91 372 259 410 296 8 8 40 34 70 57 204 161 538
498 769 777 88 106 401 552 401 571 0 3 15 28 33 57 74 115 198 355 296 570
149 328 299 811 367 1182 14 72 19 104 39 240 4 22 8 51 10 65 2 14 7 52 10
85 4 33 8 76 11 95 26 217 25 878 -1 1042 -2 13 -6 54 -10 91 -3 37 -8 76 -10
85 -1 9 -6 40 -9 67 -4 28 -9 61 -11 75 -2 14 -7 41 -10 60 -8 52 -24 142 -29
165 -29 135 -42 192 -77 322 -143 547 -380 1078 -694 1558 -77 119 -224 324
-278 391 -9 11 -39 48 -68 84 -104 128 -279 317 -415 450 -681 662 -1508 1127
-2430 1364 -100 26 -115 29 -269 60 -119 24 -119 24 -161 31 -22 3 -50 7 -64
10 -114 18 -273 37 -430 51 -55 6 -677 14 -682 10z m582 -371 c52 -4 120 -8
150 -11 49 -3 76 -6 185 -20 89 -11 188 -26 280 -44 28 -5 66 -12 85 -15 51
-9 299 -71 415 -105 283 -82 573 -198 845 -337 91 -46 172 -88 180 -93 8 -4
78 -46 155 -92 481 -286 927 -675 1306 -1138 52 -63 111 -139 132 -167 l39
-53 0 -255 c0 -141 -2 -258 -4 -260 -4 -4 -49 31 -138 107 -19 16 -50 42 -69
56 -19 15 -48 39 -65 53 -17 14 -128 106 -246 203 -118 98 -224 185 -235 194
-11 9 -72 60 -135 112 -63 52 -117 97 -120 100 -3 3 -25 21 -50 40 -25 19 -50
39 -56 45 -6 5 -30 26 -55 47 -24 20 -78 64 -119 98 -105 88 -138 114 -284
234 l-128 106 -254 0 -254 0 0 -1178 0 -1179 356 1 357 1 0 683 c-1 375 2 682
5 682 5 0 150 -116 162 -130 3 -3 27 -24 55 -45 27 -22 59 -48 70 -57 11 -9
184 -152 385 -318 201 -166 374 -309 385 -318 60 -50 536 -443 570 -470 l40
-32 267 0 c288 0 275 -2 269 48 -5 34 10 4 29 -60 12 -40 28 -93 35 -118 20
-64 74 -292 81 -337 3 -21 7 -45 9 -53 3 -8 7 -33 11 -55 3 -22 8 -43 10 -46
2 -4 -2 -9 -9 -11 -6 -2 -209 -4 -449 -3 l-438 1 0 -42 c0 -25 -5 -44 -12 -46
-11 -4 -960 -3 -979 1 -4 0 -6 20 -5 44 l1 42 -45 0 -44 0 -1 45 c-1 43 -2 45
-30 46 -17 1 -38 2 -47 3 -11 1 -17 9 -16 24 2 61 -1 67 -34 65 -56 -1 -59 0
-57 35 1 17 1 37 0 43 -1 9 -386 12 -1487 12 -817 0 -1488 2 -1491 5 -3 4 -5
45 -4 92 l2 85 -91 0 c-96 0 -93 2 -92 -56 1 -35 -20 -46 -67 -34 -23 5 -24 9
-25 93 l0 87 -42 0 c-45 0 -57 -16 -48 -65 l4 -25 -317 -2 -318 -3 0 -37 c0
-20 -4 -40 -7 -44 -4 -4 -248 -7 -543 -7 l-535 0 -1 -26 c-1 -14 -1 -34 0 -43
3 -21 47 -19 -464 -21 l-350 -2 0 -37 c-1 -46 -7 -52 -53 -52 l-37 -1 -2 -115
c0 -63 -2 -124 -2 -136 -1 -18 -7 -21 -44 -20 l-42 1 0 -45 -1 -45 -496 0
-497 0 -3 45 -3 45 -43 -1 c-38 0 -42 2 -43 25 -3 68 -2 66 -44 66 l-40 0 -5
45 c-5 45 -5 45 -43 45 -21 0 -41 6 -45 12 -4 6 -7 48 -6 93 l1 81 -43 -4
c-47 -4 -44 -8 -48 62 -1 20 -7 25 -36 28 -53 6 -59 9 -55 40 5 49 -1 53 -85
53 l-78 0 20 73 c29 106 103 327 149 449 l41 106 227 -224 226 -224 837 0 836
0 264 265 263 266 0 444 1 445 -840 0 -841 0 240 -240 240 -240 244 -2 245 -3
1 -203 0 -202 -657 0 -657 0 0 510 0 511 52 67 c29 37 79 100 112 140 l59 72
681 0 681 0 257 259 c141 142 257 262 257 265 0 3 -300 6 -667 6 l-668 1 45
40 c71 63 304 237 425 317 450 299 933 521 1454 667 100 28 321 79 383 89 21
3 57 10 80 15 37 8 121 21 240 36 18 2 62 7 98 10 36 4 76 8 90 10 13 3 87 7
165 11 77 4 141 7 142 8 6 5 369 -3 453 -9z m-5195 -4095 c0 -149 -2 -270 -5
-271 -3 -1 -26 -2 -52 -3 -55 -3 -55 -1 -38 95 5 30 12 74 15 99 4 24 8 47 10
50 2 3 6 23 9 45 12 79 52 255 58 255 2 0 3 -122 3 -270z m2351 -137 c1 -90
-2 -133 -10 -136 -6 -2 -108 -3 -226 -3 l-215 1 0 130 c-1 72 0 133 2 136 1 3
102 5 225 5 l223 -1 1 -132z m-2084 38 c4 0 6 -19 4 -40 -4 -43 10 -54 60 -45
13 2 25 1 25 -3 1 -5 3 -26 4 -48 l3 -40 -132 1 c-72 1 -133 2 -136 3 -3 0 -5
20 -5 44 0 41 1 42 35 43 19 1 40 2 46 3 7 0 11 15 10 34 -2 17 -1 37 1 43 3
9 44 12 85 5z m-270 -360 c3 -1 5 -21 4 -45 l-3 -43 46 1 46 0 0 -44 0 -45
763 -1 c420 -1 765 -4 768 -7 3 -2 6 -22 7 -43 l2 -39 90 0 90 0 -2 43 c-1 41
0 42 30 43 39 0 1219 0 1230 -1 4 0 7 -20 7 -43 l0 -44 498 1 497 1 -1 43 -1
42 49 1 c26 0 136 0 243 0 107 0 209 0 226 0 29 -1 30 -2 27 -43 -3 -42 -4
-43 -41 -44 -21 0 -41 -5 -45 -11 -4 -6 -7 -47 -6 -91 l1 -80 -40 0 c-22 -1
-43 -5 -46 -10 -3 -6 -5 -67 -5 -136 l2 -126 -43 0 c-25 0 -45 -5 -47 -12 -2
-7 -4 -47 -3 -88 l1 -75 -45 -5 -46 -5 1 -87 1 -87 -46 -3 -45 -3 0 -44 -1
-44 -45 -1 -45 -1 1 -87 c0 -73 -2 -88 -15 -89 -9 -1 -29 -2 -46 -3 -28 -1
-30 -3 -30 -43 1 -46 2 -45 -66 -46 -24 -1 -26 -4 -25 -46 l1 -46 -45 0 -45 0
-1 -408 -1 -407 271 2 271 3 1 38 c1 21 3 40 6 42 2 2 23 5 46 6 l42 3 -3 39
c-4 43 4 49 57 51 30 1 31 3 31 44 0 38 2 42 25 43 66 3 65 2 70 49 l5 45 43
-1 42 0 0 45 0 46 43 0 c42 0 42 0 45 40 4 46 10 52 57 50 l35 -2 0 92 0 92
34 -2 c18 -2 39 0 44 4 6 4 12 45 14 91 l3 85 40 0 40 0 3 92 3 92 42 -2 42
-2 3 92 3 92 46 3 46 3 -1 88 -2 87 45 0 45 0 0 90 0 90 45 0 c52 0 47 -17 45
163 l-1 108 46 -3 47 -3 -1 -268 -2 -268 48 3 47 3 0 130 1 130 180 5 180 5 0
40 0 40 -45 5 -45 5 -1 132 -1 132 46 3 46 3 -1 88 c0 54 4 87 10 88 6 0 47 1
90 2 l80 2 0 40 c1 22 4 42 8 45 3 3 84 5 180 4 l173 0 2 -55 c0 -30 1 -70 2
-90 1 -33 4 -36 29 -37 62 0 58 9 59 -137 l1 -135 -42 0 c-24 0 -45 -2 -47 -4
-3 -3 -3 -23 -1 -45 4 -41 4 -41 47 -41 l43 0 -1 43 -2 42 48 3 47 3 -1 222
-1 221 26 7 c14 4 35 5 46 2 19 -5 20 -13 20 -247 -1 -132 -1 -253 -1 -268 1
-26 4 -28 46 -28 l45 0 0 45 0 45 45 0 45 0 0 -45 0 -45 45 0 45 0 0 -90 0
-90 45 0 45 0 0 -90 c0 -96 -2 -93 58 -90 l32 2 0 -136 c0 -150 -5 -141 68
-138 20 1 22 -4 22 -43 0 -25 3 -45 8 -46 45 -6 340 -3 349 4 6 5 9 15 6 23
-3 8 -2 26 1 40 6 22 11 25 42 22 19 -1 38 3 42 9 4 6 7 107 6 225 l0 213 -46
3 -46 3 0 77 c0 42 0 82 -1 89 -1 7 -20 13 -43 15 l-43 3 -1 83 c-1 45 -4 85
-6 88 -3 3 -24 5 -46 6 l-40 0 1 84 c0 46 -2 86 -6 90 -3 3 -24 7 -47 7 l-41
1 3 90 3 90 403 1 c261 0 402 -4 403 -10 1 -5 2 -26 3 -45 l1 -35 235 -2 c129
-1 252 -2 273 -2 l37 -1 0 -44 0 -43 168 -1 c92 0 173 -1 180 -1 7 -1 12 -17
12 -46 l0 -44 131 0 c73 0 134 -2 136 -5 2 -2 4 -22 5 -44 l0 -41 152 0 c83 0
165 0 181 -1 29 0 30 -2 30 -42 l0 -43 70 -3 c38 -2 72 -8 76 -14 4 -6 5 -27
4 -47 -2 -20 -6 -92 -10 -161 -6 -122 -8 -148 -20 -260 -13 -122 -35 -278 -50
-350 -3 -14 -8 -38 -10 -55 -42 -242 -148 -607 -263 -898 l-66 -167 -674 0
-674 0 163 -165 164 -165 220 -2 220 -3 0 -328 0 -328 -43 -57 c-50 -67 -44
-60 -152 -187 -199 -236 -478 -509 -675 -660 -21 -16 -52 -42 -69 -56 -61 -50
-203 -153 -326 -234 -510 -336 -1062 -570 -1675 -711 -39 -9 -220 -45 -255
-50 -19 -3 -46 -7 -59 -9 -13 -2 -45 -7 -70 -11 -25 -3 -56 -7 -68 -9 -12 -2
-57 -7 -100 -10 -43 -4 -80 -9 -83 -10 -11 -7 -317 -19 -465 -19 -173 0 -371
10 -500 24 -49 6 -112 13 -140 15 -27 3 -57 8 -65 10 -8 2 -40 7 -70 10 -30 3
-71 10 -90 15 -19 5 -55 12 -80 15 -131 18 -415 93 -645 170 -748 250 -1378
639 -1957 1207 -37 37 -68 70 -68 73 0 3 57 5 126 5 l126 0 159 159 c87 88
159 162 159 165 0 4 -195 6 -433 6 l-433 0 -26 28 c-72 76 -345 475 -357 520
-4 15 -7 79 -6 142 l0 115 495 3 495 2 165 165 165 165 -715 0 -716 0 -64 -65
c-35 -36 -67 -65 -71 -65 -8 0 -112 245 -167 390 -59 156 -140 413 -167 530
-2 8 -8 35 -14 60 -30 129 -40 178 -45 210 -3 19 -8 46 -11 60 -11 54 -14 77
-20 115 -3 22 -7 54 -10 70 -31 199 -49 468 -48 725 0 165 10 383 21 455 2 8
82 12 124 6z m1628 0 c8 -1 3 -71 -5 -79 -4 -4 -289 -7 -633 -7 l-627 -1 2 46
c1 25 2 45 2 45 198 0 1258 -3 1261 -4z m725 -42 l0 -44 -225 0 -225 0 -1 30
c-3 63 -15 60 228 59 l223 -1 0 -44z"/>
<path d="M6555 9523 c-110 -63 -218 -125 -240 -137 -22 -13 -92 -53 -156 -90
l-116 -66 1 -915 1 -915 -715 2 -715 3 -2 880 c-1 484 -2 894 -2 911 l-1 31
-355 2 -355 2 0 -913 0 -913 268 -268 267 -267 895 0 895 0 268 268 267 267
-2 1117 -3 1117 -200 -116z"/>
<path d="M7210 5195 l0 -45 -363 0 -364 0 1 -42 2 -43 362 -3 362 -2 0 45 0
45 45 0 45 0 0 45 0 45 -45 0 -45 0 0 -45z"/>
<path d="M2580 2645 l0 -735 223 0 223 0 -1 233 c-1 127 1 238 3 245 3 9 97
12 426 12 l422 0 67 -68 67 -68 0 -179 0 -180 183 -105 c100 -58 200 -115 222
-127 l41 -21 -1 339 0 339 -127 127 -126 128 127 170 128 170 -26 35 c-14 19
-30 39 -34 45 -4 5 -68 92 -142 193 l-135 182 -770 0 -770 0 0 -735z m1358
328 l59 -77 -60 -83 -59 -83 -423 0 c-329 0 -424 3 -427 13 -4 10 -3 275 1
300 1 4 192 7 426 7 l424 0 59 -77z"/>
<path d="M4878 3216 l-168 -164 0 -571 0 -571 223 0 223 0 -1 198 c-1 108 1
203 3 210 3 9 102 12 448 12 l444 0 0 -214 0 -214 183 -102 c100 -57 201 -114
224 -127 l41 -24 1 699 0 699 -167 166 -167 167 -560 0 -560 0 -167 -164z
m1172 -361 l0 -195 -447 2 -448 3 0 180 c-1 99 1 186 3 193 3 9 102 12 448 12
l444 0 0 -195z"/>
<path d="M6810 2642 c0 -691 1 -738 18 -748 9 -6 37 -22 62 -36 25 -14 113
-64 197 -112 84 -48 156 -86 160 -84 4 2 8 188 8 413 l0 410 401 3 401 2 146
146 c81 80 147 147 147 150 0 2 -246 5 -547 6 l-548 3 0 125 0 125 495 3 495
2 165 165 165 165 -883 0 -882 0 0 -738z"/>
</g>
</svg>
